<mxfile host="app.diagrams.net" agent="Mozilla/5.0 (Macintosh; Intel Mac OS X 10_15_7) AppleWebKit/537.36 (KHTML, like Gecko) Chrome/127.0.0.0 Safari/537.36" version="24.7.6">
  <diagram name="第 1 页" id="PMX49SmxD6cJUccYsTZu">
    <mxGraphModel dx="1026" dy="577" grid="1" gridSize="10" guides="1" tooltips="1" connect="1" arrows="1" fold="1" page="1" pageScale="1" pageWidth="827" pageHeight="1169" math="0" shadow="0">
      <root>
        <mxCell id="0" />
        <mxCell id="1" parent="0" />
        <mxCell id="nj5_bVLEx2ZWJZdb6SjX-4" value="采样" style="rounded=0;whiteSpace=wrap;html=1;" parent="1" vertex="1">
          <mxGeometry x="190" y="70" width="180" height="70" as="geometry" />
        </mxCell>
        <mxCell id="nj5_bVLEx2ZWJZdb6SjX-5" value="kafka" style="rounded=0;whiteSpace=wrap;html=1;" parent="1" vertex="1">
          <mxGeometry x="30" y="130" width="90" height="370" as="geometry" />
        </mxCell>
        <mxCell id="kFTHl2-s5qn_c9RKPhkk-1" value="过滤" style="rounded=0;whiteSpace=wrap;html=1;" vertex="1" parent="1">
          <mxGeometry x="190" y="180" width="180" height="70" as="geometry" />
        </mxCell>
        <mxCell id="kFTHl2-s5qn_c9RKPhkk-2" value="分钟聚合" style="rounded=0;whiteSpace=wrap;html=1;" vertex="1" parent="1">
          <mxGeometry x="190" y="280" width="180" height="70" as="geometry" />
        </mxCell>
        <mxCell id="kFTHl2-s5qn_c9RKPhkk-3" value="小时聚合" style="rounded=0;whiteSpace=wrap;html=1;" vertex="1" parent="1">
          <mxGeometry x="190" y="380" width="180" height="70" as="geometry" />
        </mxCell>
        <mxCell id="kFTHl2-s5qn_c9RKPhkk-4" value="天聚合" style="rounded=0;whiteSpace=wrap;html=1;" vertex="1" parent="1">
          <mxGeometry x="190" y="470" width="180" height="70" as="geometry" />
        </mxCell>
      </root>
    </mxGraphModel>
  </diagram>
</mxfile>
